<svg xmlns="http://www.w3.org/2000/svg" width="24" height="24" viewBox="0 0 24 24">
  <g id="Contact_Us" data-name="Contact Us" transform="translate(-683.774 -127.343)">
    <path id="Path_20604" data-name="Path 20604" d="M688.037,127.343a1.694,1.694,0,0,1,.849.758c1.009,1.532,2.032,3.055,3.049,4.582a1.086,1.086,0,0,1-.28,1.681q-.824.639-1.646,1.281a1.072,1.072,0,0,0-.307,1.488,18.891,18.891,0,0,0,3.7,4.744,20.411,20.411,0,0,0,3.287,2.778c.439.283.9.537,1.356.787a1.029,1.029,0,0,0,1.395-.3c.45-.57.893-1.146,1.339-1.719a1.07,1.07,0,0,1,1.613-.27c1.6,1.064,3.194,2.134,4.8,3.192a1.5,1.5,0,0,1,.583.732v.422a4,4,0,0,1-.176.377c-.414.7-.812,1.407-1.261,2.082a3.253,3.253,0,0,1-.773.8,3.916,3.916,0,0,1-2.234.576,9.384,9.384,0,0,1-3.709-.656,18.822,18.822,0,0,1-5.036-2.892,38.726,38.726,0,0,1-8.023-8.317,16.255,16.255,0,0,1-2.407-4.84,8.535,8.535,0,0,1-.291-3.7,2.712,2.712,0,0,1,1.079-2c.864-.568,1.779-1.059,2.672-1.583Z" transform="translate(0)" fill="#afca23"/>
    <path id="Path_20606" data-name="Path 20606" d="M917.807,184.366c0,.143.009.286,0,.428a.408.408,0,0,1-.377.391.38.38,0,0,1-.436-.342c-.056-.407-.067-.821-.131-1.226a7.115,7.115,0,0,0-5.507-5.8c-.354-.076-.72-.1-1.081-.147-.157-.019-.317-.017-.473-.039a.393.393,0,0,1-.376-.434.4.4,0,0,1,.429-.386,7.674,7.674,0,0,1,2.453.392,8.034,8.034,0,0,1,5.5,7.169Z" transform="translate(-212.557 -46.515)" fill="#afca23"/>
    <path id="Path_20607" data-name="Path 20607" d="M910.076,219.067a5.477,5.477,0,0,1,5.214,5.368c0,.3-.149.484-.4.494s-.427-.149-.44-.454a4.637,4.637,0,0,0-4.327-4.555c-.11-.01-.222-.015-.331-.032a.4.4,0,0,1-.369-.44.4.4,0,0,1,.411-.379C909.918,219.063,910,219.067,910.076,219.067Z" transform="translate(-212.464 -86.362)" fill="#afca23"/>
    <path id="Path_20608" data-name="Path 20608" d="M909.987,261.415a2.938,2.938,0,0,1,2.784,2.86.428.428,0,0,1-.316.468.385.385,0,0,1-.46-.208.823.823,0,0,1-.073-.321,2.079,2.079,0,0,0-1.92-1.951c-.031,0-.063-.008-.094-.012-.35-.052-.5-.2-.479-.466S909.634,261.405,909.987,261.415Z" transform="translate(-212.433 -126.218)" fill="#afca23"/>
  </g>
</svg>
